<?xml version="1.0" standalone="no"?>
<!DOCTYPE svg PUBLIC "-//W3C//DTD SVG 20010904//EN"
 "http://www.w3.org/TR/2001/REC-SVG-20010904/DTD/svg10.dtd">
<svg version="1.0" xmlns="http://www.w3.org/2000/svg"
 width="103.000000pt" height="238.000000pt" viewBox="0 0 103.000000 238.000000"
 preserveAspectRatio="xMidYMid meet">
<metadata>
Created by potrace 1.16, written by Peter Selinger 2001-2019
</metadata>
<g transform="translate(0.000000,238.000000) scale(0.100000,-0.100000)"
fill="#000000" stroke="none">
<path d="M487 2233 c-4 -3 -7 -18 -7 -33 0 -37 -17 -50 -69 -50 -26 0 -55 -7
-65 -15 -11 -8 -30 -15 -43 -15 -13 0 -41 -11 -63 -25 -22 -14 -46 -25 -54
-25 -23 0 -96 -74 -96 -97 0 -11 -7 -23 -15 -27 -9 -3 -15 -18 -15 -39 0 -19
-7 -40 -15 -47 -13 -11 -15 -62 -12 -361 1 -262 5 -351 15 -361 6 -6 12 -28
12 -48 0 -20 7 -45 15 -56 8 -10 15 -26 15 -35 0 -21 130 -149 151 -149 9 0
22 -7 29 -15 8 -10 30 -15 61 -15 26 0 50 -4 53 -9 4 -5 24 -12 46 -16 47 -8
49 -12 53 -140 l2 -90 45 0 45 0 2 90 c4 130 6 135 51 135 20 0 50 7 66 15 15
8 41 15 56 15 15 0 33 7 40 15 7 8 19 15 26 15 24 0 102 79 124 124 11 23 20
58 20 77 0 19 7 44 15 55 10 14 14 48 15 127 l0 108 -137 -3 -138 -3 -3 -107
c-2 -78 -6 -109 -17 -118 -8 -7 -15 -21 -15 -32 0 -39 -84 -80 -95 -45 -6 21
-12 739 -6 811 4 50 11 72 23 80 26 16 72 -22 79 -67 3 -20 11 -42 17 -50 7
-8 15 -42 18 -76 l7 -62 131 3 131 3 3 76 c2 59 -1 79 -13 89 -10 8 -15 29
-15 60 0 30 -6 52 -15 60 -8 7 -15 18 -15 26 0 20 -86 103 -115 110 -14 3 -28
10 -31 15 -3 5 -17 9 -32 9 -15 0 -37 6 -48 14 -12 8 -44 18 -72 22 -46 6 -52
9 -52 29 0 44 -10 55 -49 55 -21 0 -41 -3 -44 -7z m-17 -329 c6 -16 9 -190 8
-452 l-3 -427 -25 -3 c-30 -3 -110 68 -110 98 0 10 -6 20 -12 22 -10 4 -13 81
-13 340 0 315 1 337 20 372 11 20 30 39 42 42 12 3 27 12 34 20 19 23 48 17
59 -12z"/>
</g>
</svg>
