<?xml version="1.0" standalone="no"?>
<!DOCTYPE svg PUBLIC "-//W3C//DTD SVG 20010904//EN"
 "http://www.w3.org/TR/2001/REC-SVG-20010904/DTD/svg10.dtd">
<svg version="1.0" xmlns="http://www.w3.org/2000/svg"
 width="103.000000pt" height="238.000000pt" viewBox="0 0 103.000000 238.000000"
 preserveAspectRatio="xMidYMid meet">
<metadata>
Created by potrace 1.16, written by Peter Selinger 2001-2019
</metadata>
<g transform="translate(0.000000,238.000000) scale(0.100000,-0.100000)"
fill="#000000" stroke="none">
<path d="M385 2314 c-7 -8 -29 -14 -48 -14 -22 0 -37 -6 -41 -15 -3 -8 -13
-15 -22 -15 -8 0 -54 -37 -100 -82 -71 -69 -84 -87 -84 -114 0 -17 -7 -37 -15
-44 -8 -7 -15 -27 -15 -46 0 -20 -6 -37 -17 -42 -14 -8 -15 -23 -10 -112 3
-56 7 -104 10 -106 11 -11 113 -16 200 -9 l94 7 6 86 c5 73 11 98 40 154 49
94 59 103 130 104 55 1 63 -1 98 -33 22 -20 39 -42 39 -51 0 -8 6 -23 14 -31
23 -25 25 -155 3 -179 -9 -10 -17 -32 -17 -48 0 -18 -8 -37 -21 -47 -11 -10
-25 -30 -30 -45 -5 -15 -54 -72 -109 -127 -67 -67 -100 -107 -100 -122 0 -13
-4 -23 -9 -23 -15 0 -171 -163 -171 -178 0 -8 -12 -27 -27 -42 -15 -16 -28
-36 -29 -45 -1 -9 -10 -25 -18 -34 -9 -10 -16 -25 -16 -33 0 -9 -7 -18 -15
-22 -10 -3 -15 -19 -15 -45 0 -22 -5 -43 -10 -46 -5 -3 -10 -32 -10 -64 0 -35
-6 -65 -15 -77 -18 -24 -21 -189 -3 -200 10 -7 251 -8 721 -5 l187 1 0 140 c0
77 -3 140 -7 141 -5 0 -131 2 -281 5 -151 2 -278 6 -283 10 -15 9 -10 29 12
55 12 13 27 38 34 54 8 17 23 39 34 49 12 11 21 26 21 34 0 8 74 90 165 182
91 93 165 174 165 182 0 8 14 27 30 43 17 16 30 36 30 45 0 9 11 27 25 40 14
13 28 39 31 58 4 19 13 47 20 61 8 14 14 36 14 48 0 12 5 25 10 28 6 4 10 58
10 129 0 98 -3 126 -15 136 -8 7 -15 20 -15 30 0 10 -7 23 -15 30 -8 7 -15 26
-15 42 0 22 -12 43 -47 79 -27 27 -55 49 -64 49 -8 0 -28 14 -44 30 -25 26
-36 30 -81 30 -30 0 -54 5 -56 11 -6 18 -235 20 -253 3z"/>
</g>
</svg>
