<?xml version="1.0" standalone="no"?>
<!DOCTYPE svg PUBLIC "-//W3C//DTD SVG 20010904//EN"
 "http://www.w3.org/TR/2001/REC-SVG-20010904/DTD/svg10.dtd">
<svg version="1.0" xmlns="http://www.w3.org/2000/svg"
 width="75.000000pt" height="238.000000pt" viewBox="0 0 75.000000 238.000000"
 preserveAspectRatio="xMidYMid meet">
<metadata>
Created by potrace 1.16, written by Peter Selinger 2001-2019
</metadata>
<g transform="translate(0.000000,238.000000) scale(0.100000,-0.100000)"
fill="#000000" stroke="none">
<path d="M518 2299 c-10 -10 -18 -27 -18 -38 0 -10 -7 -24 -15 -31 -8 -7 -15
-19 -15 -26 0 -20 -86 -104 -128 -126 -20 -10 -54 -18 -76 -18 -22 0 -47 -7
-56 -15 -14 -13 -77 -23 -153 -25 l-28 0 3 -92 3 -93 177 -5 c99 -3 181 -9
187 -15 7 -7 11 -217 12 -595 1 -321 5 -595 10 -608 9 -22 11 -23 151 -20
l143 3 0 860 0 860 -90 2 c-78 2 -92 -1 -107 -18z"/>
</g>
</svg>
