<?xml version="1.0" standalone="no"?>
<!DOCTYPE svg PUBLIC "-//W3C//DTD SVG 20010904//EN"
 "http://www.w3.org/TR/2001/REC-SVG-20010904/DTD/svg10.dtd">
<svg version="1.0" xmlns="http://www.w3.org/2000/svg"
 width="99.000000pt" height="238.000000pt" viewBox="0 0 99.000000 238.000000"
 preserveAspectRatio="xMidYMid meet">
<metadata>
Created by potrace 1.16, written by Peter Selinger 2001-2019
</metadata>
<g transform="translate(0.000000,238.000000) scale(0.100000,-0.100000)"
fill="#000000" stroke="none">
<path d="M265 1870 c-10 -11 -26 -20 -37 -20 -10 0 -18 -4 -18 -10 0 -5 -12
-13 -27 -16 -34 -9 -63 -34 -63 -55 0 -9 -7 -22 -15 -29 -8 -7 -15 -21 -15
-32 0 -10 -7 -21 -15 -24 -10 -4 -15 -21 -15 -54 0 -30 -6 -52 -15 -60 -13
-11 -15 -61 -15 -340 0 -279 2 -329 15 -340 10 -8 15 -31 15 -69 1 -33 7 -64
15 -75 8 -11 15 -26 15 -34 0 -21 121 -142 141 -142 9 0 22 -7 29 -15 17 -21
168 -21 196 0 10 8 33 15 49 15 23 0 42 11 70 40 43 44 61 50 69 23 3 -10 6
-121 7 -248 2 -126 5 -236 7 -243 5 -15 258 -17 282 -2 13 8 15 114 18 838 2
561 -1 838 -8 856 l-10 28 -119 -5 c-66 -3 -124 -8 -130 -11 -6 -4 -11 -21
-11 -37 0 -35 -27 -51 -42 -26 -5 10 -18 17 -29 17 -11 0 -30 11 -43 25 -15
16 -34 25 -53 25 -17 0 -40 9 -53 20 -19 16 -37 20 -100 20 -64 0 -80 -3 -95
-20z m315 -280 c30 -27 40 -45 40 -67 0 -17 7 -36 15 -43 13 -10 15 -53 15
-265 0 -212 -2 -255 -15 -265 -8 -7 -15 -27 -15 -45 0 -47 -67 -105 -120 -105
-45 0 -115 50 -126 90 -4 14 -13 31 -21 38 -20 21 -19 506 2 546 8 15 15 37
15 47 0 11 18 39 40 63 35 38 44 43 85 43 38 0 51 -6 85 -37z"/>
</g>
</svg>
