<?xml version="1.0" standalone="no"?>
<!DOCTYPE svg PUBLIC "-//W3C//DTD SVG 20010904//EN"
 "http://www.w3.org/TR/2001/REC-SVG-20010904/DTD/svg10.dtd">
<svg version="1.0" xmlns="http://www.w3.org/2000/svg"
 width="38.000000pt" height="239.000000pt" viewBox="0 0 38.000000 239.000000"
 preserveAspectRatio="xMidYMid meet">
<metadata>
Created by potrace 1.16, written by Peter Selinger 2001-2019
</metadata>
<g transform="translate(0.000000,239.000000) scale(0.100000,-0.100000)"
fill="#000000" stroke="none">
<path d="M33 2374 c-3 -8 -2 -68 1 -132 4 -64 6 -139 4 -167 -2 -47 -2 -193 1
-280 1 -22 1 -289 0 -593 -1 -303 0 -554 3 -557 9 -9 280 -7 290 3 9 9 13
1717 3 1732 -3 5 -71 8 -151 8 -118 0 -146 -3 -151 -14z"/>
</g>
</svg>
