<?xml version="1.0" standalone="no"?>
<!DOCTYPE svg PUBLIC "-//W3C//DTD SVG 20010904//EN"
 "http://www.w3.org/TR/2001/REC-SVG-20010904/DTD/svg10.dtd">
<svg version="1.0" xmlns="http://www.w3.org/2000/svg"
 width="188.000000pt" height="238.000000pt" viewBox="0 0 188.000000 238.000000"
 preserveAspectRatio="xMidYMid meet">
<metadata>
Created by potrace 1.16, written by Peter Selinger 2001-2019
</metadata>
<g transform="translate(0.000000,238.000000) scale(0.100000,-0.100000)"
fill="#000000" stroke="none">
<path d="M41 2322 c-15 -5 -13 -42 4 -72 8 -14 14 -45 15 -70 0 -25 7 -58 15
-74 9 -17 15 -56 15 -101 0 -52 4 -76 15 -85 10 -8 15 -31 15 -64 1 -28 7 -62
15 -76 8 -14 14 -52 15 -86 0 -35 7 -74 15 -90 8 -16 15 -52 15 -79 0 -28 5
-56 10 -61 6 -6 12 -39 14 -74 2 -36 9 -66 15 -68 7 -2 11 -31 11 -70 0 -39 6
-79 15 -95 8 -16 15 -55 16 -88 1 -35 7 -64 15 -70 10 -8 14 -36 14 -86 0 -53
4 -79 15 -89 10 -10 15 -35 15 -73 0 -40 5 -63 15 -71 8 -7 15 -25 15 -40 0
-15 6 -32 13 -38 7 -6 77 -10 182 -9 l169 2 8 40 c5 22 13 44 18 49 6 6 10 40
10 76 0 43 5 73 15 86 8 11 14 42 15 75 0 33 6 63 15 75 9 12 14 43 15 85 0
41 5 72 15 85 9 12 14 44 15 91 0 50 5 76 15 87 10 9 15 34 15 68 0 32 6 62
15 74 9 12 15 43 15 84 0 76 8 93 41 88 23 -3 24 -7 27 -80 2 -52 7 -80 17
-88 10 -8 15 -32 15 -69 1 -33 7 -64 15 -75 10 -13 15 -43 15 -87 0 -47 4 -70
15 -79 11 -9 15 -33 15 -89 1 -51 5 -82 15 -95 9 -12 15 -42 15 -75 1 -33 7
-64 15 -75 10 -13 15 -44 15 -93 0 -41 4 -73 10 -73 5 0 13 -17 16 -39 8 -48
14 -49 212 -47 152 1 162 4 162 52 0 12 7 27 15 34 10 9 15 32 15 74 0 34 5
67 11 73 6 6 13 46 15 89 3 56 8 80 19 87 11 6 15 25 15 66 0 35 6 65 15 77 9
12 14 44 15 90 0 51 4 75 15 84 10 9 15 32 15 76 0 34 4 65 9 68 4 3 11 32 14
64 2 33 12 70 20 83 8 14 15 51 16 88 1 35 7 73 13 85 6 11 13 45 14 75 2 30
8 59 14 65 5 5 10 42 10 81 0 47 5 78 15 91 8 11 14 42 15 74 0 34 6 64 16 78
8 12 14 35 12 50 l-3 27 -161 1 -161 2 -6 -81 c-4 -45 -11 -83 -17 -85 -6 -2
-10 -48 -10 -112 0 -83 -3 -110 -15 -120 -12 -10 -15 -36 -15 -115 0 -75 -4
-106 -14 -114 -10 -8 -15 -43 -18 -116 -2 -64 -8 -109 -16 -117 -8 -8 -12 -47
-12 -114 0 -78 -3 -104 -15 -114 -12 -10 -15 -37 -15 -119 0 -106 0 -107 -29
-128 -40 -30 -51 -14 -51 73 0 55 -4 73 -15 78 -12 4 -15 26 -15 105 0 79 -3
100 -15 105 -12 4 -15 23 -15 85 0 55 -4 81 -13 83 -8 3 -13 30 -14 82 -1 42
-7 83 -13 91 -6 8 -14 49 -17 92 -3 43 -10 80 -14 83 -4 3 -11 48 -15 100 -4
52 -11 101 -17 108 -6 7 -11 44 -12 83 -2 49 -8 75 -20 89 -9 10 -16 27 -15
37 5 44 6 44 -132 41 l-133 -3 -3 -32 c-2 -17 -10 -37 -18 -43 -10 -9 -14 -35
-14 -92 0 -61 -3 -80 -15 -84 -12 -5 -15 -24 -15 -84 0 -57 -4 -81 -15 -90
-11 -9 -15 -34 -15 -100 0 -66 -4 -91 -15 -100 -11 -9 -15 -33 -15 -90 0 -57
-4 -81 -15 -90 -11 -9 -15 -33 -15 -87 0 -56 -4 -75 -15 -79 -12 -5 -15 -24
-15 -84 0 -57 -4 -81 -15 -90 -11 -9 -15 -33 -15 -84 0 -82 -8 -99 -41 -94
-30 4 -42 56 -35 150 3 50 1 70 -10 79 -10 8 -14 39 -14 119 0 87 -3 109 -15
114 -12 4 -15 26 -15 112 0 86 -3 109 -16 119 -13 9 -16 31 -15 117 1 86 -1
107 -14 112 -12 4 -15 26 -15 115 0 86 -3 112 -15 118 -10 6 -15 31 -17 88
l-3 80 -157 0 c-86 0 -162 -1 -167 -3z"/>
</g>
</svg>
